<?xml version="1.0" encoding="utf-8" standalone="no"?>
<!DOCTYPE svg PUBLIC "-//W3C//DTD SVG 1.1//EN" "http://www.w3.org/Graphics/SVG/1.1/DTD/svg11.dtd">
<svg version="1.1" width="2384pt" height="3370pt" viewBox="0 0 2383.92 3370.32" xmlns="http://www.w3.org/2000/svg">
  <defs />
  <g id="Default">
    <circle cx="823.5" cy="1513" r="42.52" stroke="#FF0000" stroke-width="0.24" fill="none" />
    <circle cx="823.5" cy="1740" r="42.52" stroke="#FF0000" stroke-width="0.24" fill="none" />
    <path d="M1243.0514,2108.7583 L1277.0671,2108.7583 L1277.0671,2100.2544 L1243.0514,2100.2544 z" stroke="#FF0000" stroke-width="0.24" stroke-linecap="round" stroke-linejoin="round" fill="none" />
    <path d="M1311.083,2108.7583 L1345.0988,2108.7583 L1345.0988,2100.2544 L1311.083,2100.2544 z" stroke="#FF0000" stroke-width="0.24" stroke-linecap="round" stroke-linejoin="round" fill="none" />
    <path d="M1379.1144,2108.7583 L1413.1302,2108.7583 L1413.1302,2100.2544 L1379.1144,2100.2544 z" stroke="#FF0000" stroke-width="0.24" stroke-linecap="round" stroke-linejoin="round" fill="none" />
    <path d="M1447.146,2108.7583 L1481.1616,2108.7583 L1481.1616,2100.2544 L1447.146,2100.2544 z" stroke="#FF0000" stroke-width="0.24" stroke-linecap="round" stroke-linejoin="round" fill="none" />
    <path d="M1515.1774,2108.7583 L1549.1932,2108.7583 L1549.1932,2100.2544 L1515.1774,2100.2544 z" stroke="#FF0000" stroke-width="0.24" stroke-linecap="round" stroke-linejoin="round" fill="none" />
    <path d="M1583.209,2108.7583 L1617.2246,2108.7583 L1617.2246,2100.2544 L1583.209,2100.2544 z" stroke="#FF0000" stroke-width="0.24" stroke-linecap="round" stroke-linejoin="round" fill="none" />
    <path d="M763.99634,2108.7583 L798.0121,2108.7583 L798.0121,2100.2544 L763.99634,2100.2544 z" stroke="#FF0000" stroke-width="0.24" stroke-linecap="round" stroke-linejoin="round" fill="none" />
    <path d="M832.02783,2108.7583 L866.0436,2108.7583 L866.0436,2100.2544 L832.02783,2100.2544 z" stroke="#FF0000" stroke-width="0.24" stroke-linecap="round" stroke-linejoin="round" fill="none" />
    <path d="M900.0593,2108.7583 L934.0751,2108.7583 L934.0751,2100.2544 L900.0593,2100.2544 z" stroke="#FF0000" stroke-width="0.24" stroke-linecap="round" stroke-linejoin="round" fill="none" />
    <path d="M968.0908,2108.7583 L1002.1065,2108.7583 L1002.1065,2100.2544 L968.0908,2100.2544 z" stroke="#FF0000" stroke-width="0.24" stroke-linecap="round" stroke-linejoin="round" fill="none" />
    <path d="M1036.1223,2108.7583 L1070.1381,2108.7583 L1070.1381,2100.2544 L1036.1223,2100.2544 z" stroke="#FF0000" stroke-width="0.24" stroke-linecap="round" stroke-linejoin="round" fill="none" />
    <path d="M1104.1538,2108.7583 L1138.1696,2108.7583 L1138.1696,2100.2544 L1104.1538,2100.2544 z" stroke="#FF0000" stroke-width="0.24" stroke-linecap="round" stroke-linejoin="round" fill="none" />
    <path d="M1243.0514,1950.0181 L1277.0671,1950.0181 L1277.0671,1941.5142 L1243.0514,1941.5142 z" stroke="#FF0000" stroke-width="0.24" stroke-linecap="round" stroke-linejoin="round" fill="none" />
    <path d="M1311.083,1950.0181 L1345.0988,1950.0181 L1345.0988,1941.5142 L1311.083,1941.5142 z" stroke="#FF0000" stroke-width="0.24" stroke-linecap="round" stroke-linejoin="round" fill="none" />
    <path d="M1379.1144,1950.0181 L1413.1302,1950.0181 L1413.1302,1941.5142 L1379.1144,1941.5142 z" stroke="#FF0000" stroke-width="0.24" stroke-linecap="round" stroke-linejoin="round" fill="none" />
    <path d="M1447.146,1950.0181 L1481.1616,1950.0181 L1481.1616,1941.5142 L1447.146,1941.5142 z" stroke="#FF0000" stroke-width="0.24" stroke-linecap="round" stroke-linejoin="round" fill="none" />
    <path d="M1515.1774,1950.0181 L1549.1932,1950.0181 L1549.1932,1941.5142 L1515.1774,1941.5142 z" stroke="#FF0000" stroke-width="0.24" stroke-linecap="round" stroke-linejoin="round" fill="none" />
    <path d="M1583.209,1950.0181 L1617.2246,1950.0181 L1617.2246,1941.5142 L1583.209,1941.5142 z" stroke="#FF0000" stroke-width="0.24" stroke-linecap="round" stroke-linejoin="round" fill="none" />
    <path d="M763.99634,1950.0181 L798.0121,1950.0181 L798.0121,1941.5142 L763.99634,1941.5142 z" stroke="#FF0000" stroke-width="0.24" stroke-linecap="round" stroke-linejoin="round" fill="none" />
    <path d="M832.02783,1950.0181 L866.0436,1950.0181 L866.0436,1941.5142 L832.02783,1941.5142 z" stroke="#FF0000" stroke-width="0.24" stroke-linecap="round" stroke-linejoin="round" fill="none" />
    <path d="M900.0593,1950.0181 L934.0751,1950.0181 L934.0751,1941.5142 L900.0593,1941.5142 z" stroke="#FF0000" stroke-width="0.24" stroke-linecap="round" stroke-linejoin="round" fill="none" />
    <path d="M968.0908,1950.0181 L1002.1065,1950.0181 L1002.1065,1941.5142 L968.0908,1941.5142 z" stroke="#FF0000" stroke-width="0.24" stroke-linecap="round" stroke-linejoin="round" fill="none" />
    <path d="M1036.1223,1950.0181 L1070.1381,1950.0181 L1070.1381,1941.5142 L1036.1223,1941.5142 z" stroke="#FF0000" stroke-width="0.24" stroke-linecap="round" stroke-linejoin="round" fill="none" />
    <path d="M1104.1538,1950.0181 L1138.1696,1950.0181 L1138.1696,1941.5142 L1104.1538,1941.5142 z" stroke="#FF0000" stroke-width="0.24" stroke-linecap="round" stroke-linejoin="round" fill="none" />
    <path d="M1618.1289,1822.8479 L1628.0502,1822.8479 L1628.0502,1797.336 L1618.1289,1797.336 z" stroke="#FF0000" stroke-width="0.24" stroke-linecap="round" stroke-linejoin="round" fill="none" />
    <circle cx="823.5" cy="1627" r="42.52" stroke="#FF0000" stroke-width="0.24" fill="none" />
    <path d="M798.0121,2175.3723 L798.0121,2183.8762 L832.02783,2183.8762 L832.02783,2175.3723 L866.0436,2175.3723 L866.0436,2183.8762 L900.0593,2183.8762 L900.0593,2175.3723 L934.0751,2175.3723 L934.0751,2183.8762 L968.0908,2183.8762 L968.0908,2175.3723 L1002.1065,2175.3723 L1002.1065,2183.8762 L1036.1223,2183.8762 L1036.1223,2175.3723 L1070.1381,2175.3723 L1070.1381,2183.8762 L1104.1538,2183.8762 L1104.1538,2175.3723 L1138.1696,2175.3723 L1138.1696,2183.8762 L1177.8546,2183.8762 L1177.8546,2175.3723 L1177.8546,2155.53 L1186.3585,2155.53 L1186.3585,2121.5142 L1177.8546,2121.5142 L1177.8546,2087.4985 L1186.3585,2087.4985 L1186.3585,2053.4827 L1177.8546,2053.4827 L1177.8546,2033.6403 L724.3113,2033.6403 L724.3113,2053.4827 L715.8074,2053.4827 L715.8074,2087.4985 L724.3113,2087.4985 L724.3113,2121.5142 L715.8074,2121.5142 L715.8074,2155.53 L724.3113,2155.53 L724.3113,2175.3723 L724.3113,2183.8762 L763.99634,2183.8762 L763.99634,2175.3723 z" stroke="#FF0000" stroke-width="0.24" stroke-linecap="round" stroke-linejoin="round" fill="none" />
    <path d="M1277.0671,2175.3723 L1277.0671,2183.8762 L1311.083,2183.8762 L1311.083,2175.3723 L1345.0988,2175.3723 L1345.0988,2183.8762 L1379.1144,2183.8762 L1379.1144,2175.3723 L1413.1302,2175.3723 L1413.1302,2183.8762 L1447.146,2183.8762 L1447.146,2175.3723 L1481.1616,2175.3723 L1481.1616,2183.8762 L1515.1774,2183.8762 L1515.1774,2175.3723 L1549.1932,2175.3723 L1549.1932,2183.8762 L1583.209,2183.8762 L1583.209,2175.3723 L1617.2246,2175.3723 L1617.2246,2183.8762 L1656.9097,2183.8762 L1656.9097,2175.3723 L1656.9097,2155.53 L1665.4137,2155.53 L1665.4137,2121.5142 L1656.9097,2121.5142 L1656.9097,2087.4985 L1665.4137,2087.4985 L1665.4137,2053.4827 L1656.9097,2053.4827 L1656.9097,2033.6403 L1203.3665,2033.6403 L1203.3665,2053.4827 L1194.8625,2053.4827 L1194.8625,2087.4985 L1203.3665,2087.4985 L1203.3665,2121.5142 L1194.8625,2121.5142 L1194.8625,2155.53 L1203.3665,2155.53 L1203.3665,2175.3723 L1203.3665,2183.8762 L1243.0514,2183.8762 L1243.0514,2175.3723 z" stroke="#FF0000" stroke-width="0.24" stroke-linecap="round" stroke-linejoin="round" fill="none" />
    <path d="M798.0121,2016.6323 L798.0121,2025.1362 L832.02783,2025.1362 L832.02783,2016.6323 L866.0436,2016.6323 L866.0436,2025.1362 L900.0593,2025.1362 L900.0593,2016.6323 L934.0751,2016.6323 L934.0751,2025.1362 L968.0908,2025.1362 L968.0908,2016.6323 L1002.1065,2016.6323 L1002.1065,2025.1362 L1036.1223,2025.1362 L1036.1223,2016.6323 L1070.1381,2016.6323 L1070.1381,2025.1362 L1104.1538,2025.1362 L1104.1538,2016.6323 L1138.1696,2016.6323 L1138.1696,2025.1362 L1177.8546,2025.1362 L1186.3585,2025.1362 L1186.3585,2016.6323 L1186.3585,1996.7897 L1177.8546,1996.7897 L1177.8546,1962.774 L1186.3585,1962.774 L1186.3585,1928.7583 L1177.8546,1928.7583 L1177.8546,1894.7424 L1186.3585,1894.7424 L1186.3585,1874.9 L1177.8546,1874.9 L724.3113,1874.9 L715.8074,1874.9 L715.8074,1894.7424 L724.3113,1894.7424 L724.3113,1928.7583 L715.8074,1928.7583 L715.8074,1962.774 L724.3113,1962.774 L724.3113,1996.7897 L715.8074,1996.7897 L715.8074,2016.6323 L715.8074,2025.1362 L724.3113,2025.1362 L763.99634,2025.1362 L763.99634,2016.6323 z" stroke="#FF0000" stroke-width="0.24" stroke-linecap="round" stroke-linejoin="round" fill="none" />
    <path d="M1277.0671,2016.6323 L1277.0671,2025.1362 L1311.083,2025.1362 L1311.083,2016.6323 L1345.0988,2016.6323 L1345.0988,2025.1362 L1379.1144,2025.1362 L1379.1144,2016.6323 L1413.1302,2016.6323 L1413.1302,2025.1362 L1447.146,2025.1362 L1447.146,2016.6323 L1481.1616,2016.6323 L1481.1616,2025.1362 L1515.1774,2025.1362 L1515.1774,2016.6323 L1549.1932,2016.6323 L1549.1932,2025.1362 L1583.209,2025.1362 L1583.209,2016.6323 L1617.2246,2016.6323 L1617.2246,2025.1362 L1656.9097,2025.1362 L1665.4137,2025.1362 L1665.4137,2016.6323 L1665.4137,1996.7897 L1656.9097,1996.7897 L1656.9097,1962.774 L1665.4137,1962.774 L1665.4137,1928.7583 L1656.9097,1928.7583 L1656.9097,1894.7424 L1665.4137,1894.7424 L1665.4137,1874.9 L1656.9097,1874.9 L1203.3665,1874.9 L1194.8625,1874.9 L1194.8625,1894.7424 L1203.3665,1894.7424 L1203.3665,1928.7583 L1194.8625,1928.7583 L1194.8625,1962.774 L1203.3665,1962.774 L1203.3665,1996.7897 L1194.8625,1996.7897 L1194.8625,2016.6323 L1194.8625,2025.1362 L1203.3665,2025.1362 L1243.0514,2025.1362 L1243.0514,2016.6323 z" stroke="#FF0000" stroke-width="0.24" stroke-linecap="round" stroke-linejoin="round" fill="none" />
    <path d="M832.02783,1853.6401 L832.02783,1862.144 L866.0436,1862.144 L866.0436,1853.6401 L900.0593,1853.6401 L900.0593,1862.144 L934.0751,1862.144 L934.0751,1853.6401 L968.0908,1853.6401 L968.0908,1862.144 L1002.1065,1862.144 L1002.1065,1853.6401 L1036.1223,1853.6401 L1036.1223,1862.144 L1070.1381,1862.144 L1070.1381,1853.6401 L1104.1538,1853.6401 L1104.1538,1862.144 L1138.1696,1862.144 L1138.1696,1853.6401 L1177.8546,1853.6401 L1177.8546,1813.9552 L1186.3585,1813.9552 L1186.3585,1779.9393 L1177.8546,1779.9393 L1177.8546,1745.9236 L1186.3585,1745.9236 L1186.3585,1711.9078 L1177.8546,1711.9078 L1177.8546,1677.8921 L1186.3585,1677.8921 L1186.3585,1643.8763 L1177.8546,1643.8763 L1177.8546,1609.8606 L1186.3585,1609.8606 L1186.3585,1575.845 L1177.8546,1575.845 L1177.8546,1541.8291 L1186.3585,1541.8291 L1186.3585,1507.8134 L1177.8546,1507.8134 L1177.8546,1473.7976 L1186.3585,1473.7976 L1186.3585,1439.7819 L1177.8546,1439.7819 L1177.8546,1400.0968 L1138.1696,1400.0968 L1138.1696,1391.5929 L1104.1538,1391.5929 L1104.1538,1400.0968 L1070.1381,1400.0968 L1070.1381,1391.5929 L1036.1223,1391.5929 L1036.1223,1400.0968 L1002.1065,1400.0968 L1002.1065,1391.5929 L968.0908,1391.5929 L968.0908,1400.0968 L934.0751,1400.0968 L934.0751,1391.5929 L900.0593,1391.5929 L900.0593,1400.0968 L866.0436,1400.0968 L866.0436,1391.5929 L832.02783,1391.5929 L832.02783,1400.0968 L798.0121,1400.0968 L798.0121,1391.5929 L763.99634,1391.5929 L763.99634,1400.0968 L724.3113,1400.0968 L724.3113,1439.7819 L715.8074,1439.7819 L715.8074,1473.7976 L724.3113,1473.7976 L724.3113,1507.8134 L715.8074,1507.8134 L715.8074,1541.8291 L724.3113,1541.8291 L724.3113,1575.845 L715.8074,1575.845 L715.8074,1609.8606 L724.3113,1609.8606 L724.3113,1643.8763 L715.8074,1643.8763 L715.8074,1677.8921 L724.3113,1677.8921 L724.3113,1711.9078 L715.8074,1711.9078 L715.8074,1745.9236 L724.3113,1745.9236 L724.3113,1779.9393 L715.8074,1779.9393 L715.8074,1813.9552 L724.3113,1813.9552 L724.3113,1853.6401 L763.99634,1853.6401 L763.99634,1862.144 L798.0121,1862.144 L798.0121,1853.6401 z" stroke="#FF0000" stroke-width="0.24" stroke-linecap="round" stroke-linejoin="round" fill="none" />
    <path d="M1311.083,1853.6401 L1311.083,1862.144 L1345.0988,1862.144 L1345.0988,1853.6401 L1379.1144,1853.6401 L1379.1144,1862.144 L1413.1302,1862.144 L1413.1302,1853.6401 L1447.146,1853.6401 L1447.146,1862.144 L1481.1616,1862.144 L1481.1616,1853.6401 L1515.1774,1853.6401 L1515.1774,1862.144 L1549.1932,1862.144 L1549.1932,1853.6401 L1583.209,1853.6401 L1583.209,1862.144 L1617.2246,1862.144 L1617.2246,1853.6401 L1656.9097,1853.6401 L1656.9097,1813.9552 L1665.4137,1813.9552 L1665.4137,1779.9393 L1656.9097,1779.9393 L1656.9097,1745.9236 L1665.4137,1745.9236 L1665.4137,1711.9078 L1656.9097,1711.9078 L1656.9097,1677.8921 L1665.4137,1677.8921 L1665.4137,1643.8763 L1656.9097,1643.8763 L1656.9097,1609.8606 L1665.4137,1609.8606 L1665.4137,1575.845 L1656.9097,1575.845 L1656.9097,1541.8291 L1665.4137,1541.8291 L1665.4137,1507.8134 L1656.9097,1507.8134 L1656.9097,1473.7976 L1665.4137,1473.7976 L1665.4137,1439.7819 L1656.9097,1439.7819 L1656.9097,1400.0968 L1617.2246,1400.0968 L1617.2246,1391.5929 L1583.209,1391.5929 L1583.209,1400.0968 L1549.1932,1400.0968 L1549.1932,1391.5929 L1515.1774,1391.5929 L1515.1774,1400.0968 L1481.1616,1400.0968 L1481.1616,1391.5929 L1447.146,1391.5929 L1447.146,1400.0968 L1413.1302,1400.0968 L1413.1302,1391.5929 L1379.1144,1391.5929 L1379.1144,1400.0968 L1345.0988,1400.0968 L1345.0988,1391.5929 L1311.083,1391.5929 L1311.083,1400.0968 L1277.0671,1400.0968 L1277.0671,1391.5929 L1243.0514,1391.5929 L1243.0514,1400.0968 L1203.3665,1400.0968 L1203.3665,1439.7819 L1194.8625,1439.7819 L1194.8625,1473.7976 L1203.3665,1473.7976 L1203.3665,1507.8134 L1194.8625,1507.8134 L1194.8625,1541.8291 L1203.3665,1541.8291 L1203.3665,1575.845 L1194.8625,1575.845 L1194.8625,1609.8606 L1203.3665,1609.8606 L1203.3665,1643.8763 L1194.8625,1643.8763 L1194.8625,1677.8921 L1203.3665,1677.8921 L1203.3665,1711.9078 L1194.8625,1711.9078 L1194.8625,1745.9236 L1203.3665,1745.9236 L1203.3665,1779.9393 L1194.8625,1779.9393 L1194.8625,1813.9552 L1203.3665,1813.9552 L1203.3665,1853.6401 L1243.0514,1853.6401 L1243.0514,1862.144 L1277.0671,1862.144 L1277.0671,1853.6401 z" stroke="#FF0000" stroke-width="0.24" stroke-linecap="round" stroke-linejoin="round" fill="none" />
  </g>
</svg>