<?xml version="1.0" encoding="utf-8" standalone="no"?>
<!DOCTYPE svg PUBLIC "-//W3C//DTD SVG 1.1//EN" "http://www.w3.org/Graphics/SVG/1.1/DTD/svg11.dtd">
<svg version="1.1" width="2384pt" height="3370pt" viewBox="0 0 2383.92 3370.32" xmlns="http://www.w3.org/2000/svg">
  <defs />
  <g id="Default">
    <path d="M1723.7876,2003.7855 L1757.8032,2003.7855 L1757.8032,1995.2817 L1723.7876,1995.2817 z" stroke="#FF0000" stroke-width="0.24" stroke-linecap="round" stroke-linejoin="round" fill="none" />
    <path d="M1791.819,2003.7855 L1825.8348,2003.7855 L1825.8348,1995.2817 L1791.819,1995.2817 z" stroke="#FF0000" stroke-width="0.24" stroke-linecap="round" stroke-linejoin="round" fill="none" />
    <path d="M1859.8506,2003.7855 L1893.8662,2003.7855 L1893.8662,1995.2817 L1859.8506,1995.2817 z" stroke="#FF0000" stroke-width="0.24" stroke-linecap="round" stroke-linejoin="round" fill="none" />
    <path d="M1927.8821,2003.7855 L1961.8978,2003.7855 L1961.8978,1995.2817 L1927.8821,1995.2817 z" stroke="#FF0000" stroke-width="0.24" stroke-linecap="round" stroke-linejoin="round" fill="none" />
    <path d="M1108.6694,2003.7855 L1142.6852,2003.7855 L1142.6852,1995.2817 L1108.6694,1995.2817 z" stroke="#FF0000" stroke-width="0.24" stroke-linecap="round" stroke-linejoin="round" fill="none" />
    <path d="M1176.7009,2003.7855 L1210.7167,2003.7855 L1210.7167,1995.2817 L1176.7009,1995.2817 z" stroke="#FF0000" stroke-width="0.24" stroke-linecap="round" stroke-linejoin="round" fill="none" />
    <path d="M1244.7324,2003.7855 L1278.7482,2003.7855 L1278.7482,1995.2817 L1244.7324,1995.2817 z" stroke="#FF0000" stroke-width="0.24" stroke-linecap="round" stroke-linejoin="round" fill="none" />
    <path d="M1312.7639,2003.7855 L1346.7797,2003.7855 L1346.7797,1995.2817 L1312.7639,1995.2817 z" stroke="#FF0000" stroke-width="0.24" stroke-linecap="round" stroke-linejoin="round" fill="none" />
    <path d="M1380.7954,2003.7855 L1414.8112,2003.7855 L1414.8112,1995.2817 L1380.7954,1995.2817 z" stroke="#FF0000" stroke-width="0.24" stroke-linecap="round" stroke-linejoin="round" fill="none" />
    <path d="M1448.8269,2003.7855 L1482.8427,2003.7855 L1482.8427,1995.2817 L1448.8269,1995.2817 z" stroke="#FF0000" stroke-width="0.24" stroke-linecap="round" stroke-linejoin="round" fill="none" />
    <path d="M1587.7246,1845.0454 L1621.7404,1845.0454 L1621.7404,1836.5415 L1587.7246,1836.5415 z" stroke="#FF0000" stroke-width="0.24" stroke-linecap="round" stroke-linejoin="round" fill="none" />
    <path d="M1655.756,1845.0454 L1689.7719,1845.0454 L1689.7719,1836.5415 L1655.756,1836.5415 z" stroke="#FF0000" stroke-width="0.24" stroke-linecap="round" stroke-linejoin="round" fill="none" />
    <path d="M1723.7876,1845.0454 L1757.8032,1845.0454 L1757.8032,1836.5415 L1723.7876,1836.5415 z" stroke="#FF0000" stroke-width="0.24" stroke-linecap="round" stroke-linejoin="round" fill="none" />
    <path d="M1791.819,1845.0454 L1825.8348,1845.0454 L1825.8348,1836.5415 L1791.819,1836.5415 z" stroke="#FF0000" stroke-width="0.24" stroke-linecap="round" stroke-linejoin="round" fill="none" />
    <path d="M1859.8506,1845.0454 L1893.8662,1845.0454 L1893.8662,1836.5415 L1859.8506,1836.5415 z" stroke="#FF0000" stroke-width="0.24" stroke-linecap="round" stroke-linejoin="round" fill="none" />
    <path d="M1927.8821,1845.0454 L1961.8978,1845.0454 L1961.8978,1836.5415 L1927.8821,1836.5415 z" stroke="#FF0000" stroke-width="0.24" stroke-linecap="round" stroke-linejoin="round" fill="none" />
    <path d="M1108.6694,1845.0454 L1142.6852,1845.0454 L1142.6852,1836.5415 L1108.6694,1836.5415 z" stroke="#FF0000" stroke-width="0.24" stroke-linecap="round" stroke-linejoin="round" fill="none" />
    <path d="M1176.7009,1845.0454 L1210.7167,1845.0454 L1210.7167,1836.5415 L1176.7009,1836.5415 z" stroke="#FF0000" stroke-width="0.24" stroke-linecap="round" stroke-linejoin="round" fill="none" />
    <path d="M1244.7324,1845.0454 L1278.7482,1845.0454 L1278.7482,1836.5415 L1244.7324,1836.5415 z" stroke="#FF0000" stroke-width="0.24" stroke-linecap="round" stroke-linejoin="round" fill="none" />
    <path d="M1312.7639,1845.0454 L1346.7797,1845.0454 L1346.7797,1836.5415 L1312.7639,1836.5415 z" stroke="#FF0000" stroke-width="0.24" stroke-linecap="round" stroke-linejoin="round" fill="none" />
    <path d="M1380.7954,1845.0454 L1414.8112,1845.0454 L1414.8112,1836.5415 L1380.7954,1836.5415 z" stroke="#FF0000" stroke-width="0.24" stroke-linecap="round" stroke-linejoin="round" fill="none" />
    <path d="M1448.8269,1845.0454 L1482.8427,1845.0454 L1482.8427,1836.5415 L1448.8269,1836.5415 z" stroke="#FF0000" stroke-width="0.24" stroke-linecap="round" stroke-linejoin="round" fill="none" />
    <path d="M1587.7246,2003.7855 L1621.7404,2003.7855 L1621.7404,1995.2817 L1587.7246,1995.2817 z" stroke="#FF0000" stroke-width="0.24" stroke-linecap="round" stroke-linejoin="round" fill="none" />
    <path d="M1655.756,2003.7855 L1689.7719,2003.7855 L1689.7719,1995.2817 L1655.756,1995.2817 z" stroke="#FF0000" stroke-width="0.24" stroke-linecap="round" stroke-linejoin="round" fill="none" />
    <path d="M1142.6852,2070.4 L1142.6852,2078.9036 L1176.7009,2078.9036 L1176.7009,2070.4 L1210.7167,2070.4 L1210.7167,2078.9036 L1244.7324,2078.9036 L1244.7324,2070.4 L1278.7482,2070.4 L1278.7482,2078.9036 L1312.7639,2078.9036 L1312.7639,2070.4 L1346.7797,2070.4 L1346.7797,2078.9036 L1380.7954,2078.9036 L1380.7954,2070.4 L1414.8112,2070.4 L1414.8112,2078.9036 L1448.8269,2078.9036 L1448.8269,2070.4 L1482.8427,2070.4 L1482.8427,2078.9036 L1522.5277,2078.9036 L1522.5277,2070.4 L1522.5277,2050.5571 L1531.0316,2050.5571 L1531.0316,2016.5414 L1522.5277,2016.5414 L1522.5277,1982.5259 L1531.0316,1982.5259 L1531.0316,1948.51 L1522.5277,1948.51 L1522.5277,1928.6675 L1068.9844,1928.6675 L1068.9844,1948.51 L1060.4805,1948.51 L1060.4805,1982.5259 L1068.9844,1982.5259 L1068.9844,2016.5414 L1060.4805,2016.5414 L1060.4805,2050.5571 L1068.9844,2050.5571 L1068.9844,2070.4 L1068.9844,2078.9036 L1108.6694,2078.9036 L1108.6694,2070.4 z" stroke="#FF0000" stroke-width="0.24" stroke-linecap="round" stroke-linejoin="round" fill="none" />
    <path d="M1621.7404,2070.4 L1621.7404,2078.9036 L1655.756,2078.9036 L1655.756,2070.4 L1689.7719,2070.4 L1689.7719,2078.9036 L1723.7876,2078.9036 L1723.7876,2070.4 L1757.8032,2070.4 L1757.8032,2078.9036 L1791.819,2078.9036 L1791.819,2070.4 L1825.8348,2070.4 L1825.8348,2078.9036 L1859.8506,2078.9036 L1859.8506,2070.4 L1893.8662,2070.4 L1893.8662,2078.9036 L1927.8821,2078.9036 L1927.8821,2070.4 L1961.8978,2070.4 L1961.8978,2078.9036 L2001.5829,2078.9036 L2001.5829,2070.4 L2001.5829,2050.5571 L2010.0867,2050.5571 L2010.0867,2016.5414 L2001.5829,2016.5414 L2001.5829,1982.5259 L2010.0867,1982.5259 L2010.0867,1948.51 L2001.5829,1948.51 L2001.5829,1928.6675 L1548.0396,1928.6675 L1548.0396,1948.51 L1539.5355,1948.51 L1539.5355,1982.5259 L1548.0396,1982.5259 L1548.0396,2016.5414 L1539.5355,2016.5414 L1539.5355,2050.5571 L1548.0396,2050.5571 L1548.0396,2070.4 L1548.0396,2078.9036 L1587.7246,2078.9036 L1587.7246,2070.4 z" stroke="#FF0000" stroke-width="0.24" stroke-linecap="round" stroke-linejoin="round" fill="none" />
    <path d="M1142.6852,1911.6597 L1142.6852,1920.1636 L1176.7009,1920.1636 L1176.7009,1911.6597 L1210.7167,1911.6597 L1210.7167,1920.1636 L1244.7324,1920.1636 L1244.7324,1911.6597 L1278.7482,1911.6597 L1278.7482,1920.1636 L1312.7639,1920.1636 L1312.7639,1911.6597 L1346.7797,1911.6597 L1346.7797,1920.1636 L1380.7954,1920.1636 L1380.7954,1911.6597 L1414.8112,1911.6597 L1414.8112,1920.1636 L1448.8269,1920.1636 L1448.8269,1911.6597 L1482.8427,1911.6597 L1482.8427,1920.1636 L1522.5277,1920.1636 L1531.0316,1920.1636 L1531.0316,1911.6597 L1531.0316,1891.8171 L1522.5277,1891.8171 L1522.5277,1857.8013 L1531.0316,1857.8013 L1531.0316,1823.7855 L1522.5277,1823.7855 L1522.5277,1789.7699 L1531.0316,1789.7699 L1531.0316,1769.9274 L1522.5277,1769.9274 L1068.9844,1769.9274 L1060.4805,1769.9274 L1060.4805,1789.7699 L1068.9844,1789.7699 L1068.9844,1823.7855 L1060.4805,1823.7855 L1060.4805,1857.8013 L1068.9844,1857.8013 L1068.9844,1891.8171 L1060.4805,1891.8171 L1060.4805,1911.6597 L1060.4805,1920.1636 L1068.9844,1920.1636 L1108.6694,1920.1636 L1108.6694,1911.6597 z" stroke="#FF0000" stroke-width="0.24" stroke-linecap="round" stroke-linejoin="round" fill="none" />
    <path d="M1621.7404,1911.6597 L1621.7404,1920.1636 L1655.756,1920.1636 L1655.756,1911.6597 L1689.7719,1911.6597 L1689.7719,1920.1636 L1723.7876,1920.1636 L1723.7876,1911.6597 L1757.8032,1911.6597 L1757.8032,1920.1636 L1791.819,1920.1636 L1791.819,1911.6597 L1825.8348,1911.6597 L1825.8348,1920.1636 L1859.8506,1920.1636 L1859.8506,1911.6597 L1893.8662,1911.6597 L1893.8662,1920.1636 L1927.8821,1920.1636 L1927.8821,1911.6597 L1961.8978,1911.6597 L1961.8978,1920.1636 L2001.5829,1920.1636 L2010.0867,1920.1636 L2010.0867,1911.6597 L2010.0867,1891.8171 L2001.5829,1891.8171 L2001.5829,1857.8013 L2010.0867,1857.8013 L2010.0867,1823.7855 L2001.5829,1823.7855 L2001.5829,1789.7699 L2010.0867,1789.7699 L2010.0867,1769.9274 L2001.5829,1769.9274 L1548.0396,1769.9274 L1539.5355,1769.9274 L1539.5355,1789.7699 L1548.0396,1789.7699 L1548.0396,1823.7855 L1539.5355,1823.7855 L1539.5355,1857.8013 L1548.0396,1857.8013 L1548.0396,1891.8171 L1539.5355,1891.8171 L1539.5355,1911.6597 L1539.5355,1920.1636 L1548.0396,1920.1636 L1587.7246,1920.1636 L1587.7246,1911.6597 z" stroke="#FF0000" stroke-width="0.24" stroke-linecap="round" stroke-linejoin="round" fill="none" />
    <path d="M1176.7009,1748.6675 L1176.7009,1757.1715 L1210.7167,1757.1715 L1210.7167,1748.6675 L1244.7324,1748.6675 L1244.7324,1757.1715 L1278.7482,1757.1715 L1278.7482,1748.6675 L1312.7639,1748.6675 L1312.7639,1757.1715 L1346.7797,1757.1715 L1346.7797,1748.6675 L1380.7954,1748.6675 L1380.7954,1757.1715 L1414.8112,1757.1715 L1414.8112,1748.6675 L1448.8269,1748.6675 L1448.8269,1757.1715 L1482.8427,1757.1715 L1482.8427,1748.6675 L1522.5277,1748.6675 L1522.5277,1708.9824 L1531.0316,1708.9824 L1531.0316,1674.9667 L1522.5277,1674.9667 L1522.5277,1640.9509 L1531.0316,1640.9509 L1531.0316,1606.9352 L1522.5277,1606.9352 L1522.5277,1572.9194 L1531.0316,1572.9194 L1531.0316,1538.9037 L1522.5277,1538.9037 L1522.5277,1504.8881 L1531.0316,1504.8881 L1531.0316,1470.8722 L1522.5277,1470.8722 L1522.5277,1436.8564 L1531.0316,1436.8564 L1531.0316,1402.8407 L1522.5277,1402.8407 L1522.5277,1368.825 L1531.0316,1368.825 L1531.0316,1334.8092 L1522.5277,1334.8092 L1522.5277,1295.1241 L1482.8427,1295.1241 L1482.8427,1286.6202 L1448.8269,1286.6202 L1448.8269,1295.1241 L1414.8112,1295.1241 L1414.8112,1286.6202 L1380.7954,1286.6202 L1380.7954,1295.1241 L1346.7797,1295.1241 L1346.7797,1286.6202 L1312.7639,1286.6202 L1312.7639,1295.1241 L1278.7482,1295.1241 L1278.7482,1286.6202 L1244.7324,1286.6202 L1244.7324,1295.1241 L1210.7167,1295.1241 L1210.7167,1286.6202 L1176.7009,1286.6202 L1176.7009,1295.1241 L1142.6852,1295.1241 L1142.6852,1286.6202 L1108.6694,1286.6202 L1108.6694,1295.1241 L1068.9844,1295.1241 L1068.9844,1334.8092 L1060.4805,1334.8092 L1060.4805,1368.825 L1068.9844,1368.825 L1068.9844,1402.8407 L1060.4805,1402.8407 L1060.4805,1436.8564 L1068.9844,1436.8564 L1068.9844,1470.8722 L1060.4805,1470.8722 L1060.4805,1504.8881 L1068.9844,1504.8881 L1068.9844,1538.9037 L1060.4805,1538.9037 L1060.4805,1572.9194 L1068.9844,1572.9194 L1068.9844,1606.9352 L1060.4805,1606.9352 L1060.4805,1640.9509 L1068.9844,1640.9509 L1068.9844,1674.9667 L1060.4805,1674.9667 L1060.4805,1708.9824 L1068.9844,1708.9824 L1068.9844,1748.6675 L1108.6694,1748.6675 L1108.6694,1757.1715 L1142.6852,1757.1715 L1142.6852,1748.6675 z" stroke="#FF0000" stroke-width="0.24" stroke-linecap="round" stroke-linejoin="round" fill="none" />
    <path d="M1655.756,1748.6675 L1655.756,1757.1715 L1689.7719,1757.1715 L1689.7719,1748.6675 L1723.7876,1748.6675 L1723.7876,1757.1715 L1757.8032,1757.1715 L1757.8032,1748.6675 L1791.819,1748.6675 L1791.819,1757.1715 L1825.8348,1757.1715 L1825.8348,1748.6675 L1859.8506,1748.6675 L1859.8506,1757.1715 L1893.8662,1757.1715 L1893.8662,1748.6675 L1927.8821,1748.6675 L1927.8821,1757.1715 L1961.8978,1757.1715 L1961.8978,1748.6675 L2001.5829,1748.6675 L2001.5829,1708.9824 L2010.0867,1708.9824 L2010.0867,1674.9667 L2001.5829,1674.9667 L2001.5829,1640.9509 L2010.0867,1640.9509 L2010.0867,1606.9352 L2001.5829,1606.9352 L2001.5829,1572.9194 L2010.0867,1572.9194 L2010.0867,1538.9037 L2001.5829,1538.9037 L2001.5829,1504.8881 L2010.0867,1504.8881 L2010.0867,1470.8722 L2001.5829,1470.8722 L2001.5829,1436.8564 L2010.0867,1436.8564 L2010.0867,1402.8407 L2001.5829,1402.8407 L2001.5829,1368.825 L2010.0867,1368.825 L2010.0867,1334.8092 L2001.5829,1334.8092 L2001.5829,1295.1241 L1961.8978,1295.1241 L1961.8978,1286.6202 L1927.8821,1286.6202 L1927.8821,1295.1241 L1893.8662,1295.1241 L1893.8662,1286.6202 L1859.8506,1286.6202 L1859.8506,1295.1241 L1825.8348,1295.1241 L1825.8348,1286.6202 L1791.819,1286.6202 L1791.819,1295.1241 L1757.8032,1295.1241 L1757.8032,1286.6202 L1723.7876,1286.6202 L1723.7876,1295.1241 L1689.7719,1295.1241 L1689.7719,1286.6202 L1655.756,1286.6202 L1655.756,1295.1241 L1621.7404,1295.1241 L1621.7404,1286.6202 L1587.7246,1286.6202 L1587.7246,1295.1241 L1548.0396,1295.1241 L1548.0396,1334.8092 L1539.5355,1334.8092 L1539.5355,1368.825 L1548.0396,1368.825 L1548.0396,1402.8407 L1539.5355,1402.8407 L1539.5355,1436.8564 L1548.0396,1436.8564 L1548.0396,1470.8722 L1539.5355,1470.8722 L1539.5355,1504.8881 L1548.0396,1504.8881 L1548.0396,1538.9037 L1539.5355,1538.9037 L1539.5355,1572.9194 L1548.0396,1572.9194 L1548.0396,1606.9352 L1539.5355,1606.9352 L1539.5355,1640.9509 L1548.0396,1640.9509 L1548.0396,1674.9667 L1539.5355,1674.9667 L1539.5355,1708.9824 L1548.0396,1708.9824 L1548.0396,1748.6675 L1587.7246,1748.6675 L1587.7246,1757.1715 L1621.7404,1757.1715 L1621.7404,1748.6675 z" stroke="#FF0000" stroke-width="0.24" stroke-linecap="round" stroke-linejoin="round" fill="none" />
  </g>
</svg>